<?xml version="1.0" standalone="no"?>
<!DOCTYPE svg PUBLIC "-//W3C//DTD SVG 20010904//EN"
 "http://www.w3.org/TR/2001/REC-SVG-20010904/DTD/svg10.dtd">
<svg version="1.0" xmlns="http://www.w3.org/2000/svg"
 width="646.000000pt" height="386.000000pt" viewBox="0 0 646.000000 386.000000"
 preserveAspectRatio="xMidYMid meet">

<g transform="translate(0.000000,386.000000) scale(0.100000,-0.100000)"
fill="#6c00e6" stroke="none">
<path d="M1882 3146 c-111 -194 -202 -359 -202 -366 0 -13 362 -645 402 -703
l20 -27 410 2 411 3 203 355 c112 195 204 357 204 360 0 3 -94 167 -208 365
l-209 360 -414 3 -415 2 -202 -354z"/>
<path d="M596 2608 c-182 -316 -379 -665 -379 -674 0 -11 79 -151 309 -544
l102 -175 419 0 418 0 203 354 202 354 -159 276 c-87 152 -181 314 -208 361
l-49 85 -417 3 -416 2 -25 -42z"/>
<path d="M3785 2560 c-176 -19 -310 -104 -376 -238 -20 -39 -24 -63 -24 -142
0 -79 4 -102 22 -137 33 -61 89 -111 165 -148 69 -33 100 -42 316 -94 143 -34
202 -65 227 -117 46 -97 -21 -195 -156 -230 -114 -30 -251 5 -316 80 -17 19
-36 51 -43 70 l-12 37 -116 -3 -117 -3 2 -45 c4 -140 143 -278 326 -327 86
-23 290 -23 375 0 97 26 172 67 229 124 70 71 96 140 97 253 1 102 -21 156
-89 219 -76 70 -144 97 -380 151 -208 48 -275 93 -275 183 0 104 84 167 224
167 131 0 209 -47 244 -146 l18 -49 105 -3 c135 -3 141 1 116 97 -56 214 -276
332 -562 301z"/>
<path d="M4460 1905 l0 -635 360 0 360 0 0 100 0 100 -227 2 -228 3 -3 533 -2
532 -130 0 -130 0 0 -635z"/>
<path d="M4836 2533 c-3 -4 -6 -219 -6 -480 l0 -473 310 0 310 0 0 80 0 80
-210 0 -210 0 0 125 0 125 145 0 145 0 0 75 0 74 -142 3 -143 3 -3 118 -3 117
191 0 190 0 0 80 0 80 -284 -1 c-156 0 -287 -3 -290 -6z"/>
<path d="M1888 1451 l-205 -359 208 -358 208 -359 418 -2 418 -3 200 351 c110
193 200 356 200 363 0 6 -92 172 -205 369 l-205 356 -416 1 -416 0 -205 -359z"/>
</g>
</svg>
